<svg width="40" height="40" viewBox="0 0 40 40" fill="none" xmlns="http://www.w3.org/2000/svg">
<mask id="mask0_4665_27269" style="mask-type:alpha" maskUnits="userSpaceOnUse" x="6" y="6" width="28" height="28">
<rect x="6" y="6" width="28" height="28" fill="#D9D9D9"/>
</mask>
<g mask="url(#mask0_4665_27269)">
<path d="M20.4667 23.9083L16.0917 19.5333L25.775 9.85C26.0083 9.61667 26.2854 9.5 26.6062 9.5C26.9271 9.5 27.2042 9.61667 27.4375 9.85L30.15 12.5625C30.3833 12.7958 30.5 13.0729 30.5 13.3937C30.5 13.7146 30.3833 13.9917 30.15 14.225L20.4667 23.9083ZM20.4667 20.5833L27.7 13.3792L26.6208 12.3L19.4167 19.5333L20.4667 20.5833ZM18.8333 30.5L21.1667 28.1667H31.6667V30.5H18.8333ZM11.9208 30.5C11.0264 30.5 10.166 30.325 9.33958 29.975C8.51319 29.625 7.78889 29.1389 7.16667 28.5167L14.8958 20.8167L17.9292 23.85C18.2014 24.1222 18.4153 24.4333 18.5708 24.7833C18.7264 25.1333 18.8042 25.5028 18.8042 25.8917C18.8042 26.2806 18.7264 26.6549 18.5708 27.0146C18.4153 27.3743 18.2014 27.6903 17.9292 27.9625L17.375 28.5167C16.7528 29.1389 16.0285 29.625 15.2021 29.975C14.3757 30.325 13.5153 30.5 12.6208 30.5H11.9208ZM11.9208 28.1667H12.6208C13.2042 28.1667 13.7681 28.0549 14.3125 27.8312C14.8569 27.6076 15.3333 27.2917 15.7417 26.8833L16.2958 26.3292C16.4125 26.2125 16.4708 26.0764 16.4708 25.9208C16.4708 25.7653 16.4125 25.6292 16.2958 25.5125L14.8958 24.1125L10.9292 28.05C11.0847 28.0889 11.25 28.1181 11.425 28.1375C11.6 28.1569 11.7653 28.1667 11.9208 28.1667Z" fill="#FDFDFE"/>
</g>
</svg>
