<svg width="24" height="24" viewBox="0 0 24 24" fill="none" xmlns="http://www.w3.org/2000/svg">
<path d="M3.83333 23.6667C2.86111 23.6667 2.03472 23.3264 1.35417 22.6458C0.673612 21.9653 0.333334 21.1389 0.333334 20.1667C0.333334 19.8361 0.44514 19.559 0.668751 19.3354C0.892362 19.1118 1.16945 19 1.5 19C1.83056 19 2.10764 19.1118 2.33125 19.3354C2.55486 19.559 2.66667 19.8361 2.66667 20.1667C2.66667 20.4972 2.77847 20.7743 3.00208 20.9979C3.2257 21.2215 3.50278 21.3333 3.83333 21.3333C4.125 21.3333 4.4507 21.2458 4.81042 21.0708C5.17014 20.8958 5.54445 20.6431 5.93333 20.3125C6.32222 19.982 6.70625 19.6077 7.08542 19.1896C7.46458 18.7715 7.83889 18.3195 8.20833 17.8333C8.94722 16.8417 9.56945 15.8208 10.075 14.7708C10.5806 13.7208 10.8333 12.7972 10.8333 12V1.50001C10.8333 1.16945 10.9451 0.892371 11.1688 0.66876C11.3924 0.445149 11.6694 0.333344 12 0.333344C12.3306 0.333344 12.6076 0.445149 12.8313 0.66876C13.0549 0.892371 13.1667 1.16945 13.1667 1.50001V12C13.1667 12.7972 13.4194 13.7208 13.925 14.7708C14.4306 15.8208 15.0528 16.8417 15.7917 17.8333C16.1611 18.3195 16.5354 18.7715 16.9146 19.1896C17.2938 19.6077 17.6778 19.982 18.0667 20.3125C18.4556 20.6431 18.8299 20.8958 19.1896 21.0708C19.5493 21.2458 19.875 21.3333 20.1667 21.3333C20.4972 21.3333 20.7743 21.2215 20.9979 20.9979C21.2215 20.7743 21.3333 20.4972 21.3333 20.1667C21.3333 19.8361 21.4451 19.559 21.6688 19.3354C21.8924 19.1118 22.1694 19 22.5 19C22.8306 19 23.1076 19.1118 23.3313 19.3354C23.5549 19.559 23.6667 19.8361 23.6667 20.1667C23.6667 21.1389 23.3264 21.9653 22.6458 22.6458C21.9653 23.3264 21.1389 23.6667 20.1667 23.6667C19.7 23.6667 19.1701 23.5306 18.5771 23.2583C17.984 22.9861 17.3764 22.607 16.7542 22.1208C16.1319 21.6347 15.5146 21.066 14.9021 20.4146C14.2896 19.7632 13.7111 19.0583 13.1667 18.3C12.875 17.8917 12.6465 17.6146 12.4813 17.4688C12.316 17.3229 12.1556 17.25 12 17.25C11.8444 17.25 11.684 17.3229 11.5188 17.4688C11.3535 17.6146 11.125 17.8917 10.8333 18.3C10.2889 19.0583 9.71042 19.7632 9.09792 20.4146C8.48542 21.066 7.86806 21.6347 7.24583 22.1208C6.62361 22.607 6.01597 22.9861 5.42292 23.2583C4.82986 23.5306 4.3 23.6667 3.83333 23.6667ZM4.41667 19.9042L1.79167 17.775C1.51945 17.5611 1.30556 17.3035 1.15 17.0021C0.994445 16.7007 0.916667 16.375 0.916667 16.025C0.916667 15.675 0.984723 15.3445 1.12083 15.0333C1.25695 14.7222 1.46111 14.4597 1.73333 14.2458C1.92778 14.0903 2.14167 14.0174 2.375 14.0271C2.60833 14.0368 2.80278 14.1389 2.95833 14.3333C3.11389 14.5278 3.18681 14.7465 3.17708 14.9896C3.16736 15.2326 3.06528 15.432 2.87083 15.5875C2.83195 15.6264 2.7882 15.6847 2.73958 15.7625C2.69097 15.8403 2.66667 15.9278 2.66667 16.025C2.66667 16.1028 2.68125 16.1757 2.71042 16.2438C2.73958 16.3118 2.79306 16.375 2.87083 16.4333L5.81667 18.7667C5.54445 19.0195 5.29167 19.2431 5.05833 19.4375C4.825 19.632 4.61111 19.7875 4.41667 19.9042ZM7.50833 16.9292L3.54167 13.75C3.26945 13.5361 3.05556 13.2736 2.9 12.9625C2.74445 12.6514 2.66667 12.3208 2.66667 11.9708C2.66667 11.6208 2.73472 11.2854 2.87083 10.9646C3.00695 10.6438 3.21111 10.3764 3.48333 10.1625C3.67778 10.007 3.89653 9.9389 4.13958 9.95834C4.38264 9.97779 4.58195 10.0847 4.7375 10.2792C4.89306 10.4736 4.96111 10.6875 4.94167 10.9208C4.92222 11.1542 4.81528 11.3486 4.62083 11.5042C4.5625 11.5431 4.51389 11.6111 4.475 11.7083C4.43611 11.8056 4.41667 11.9028 4.41667 12C4.41667 12.0778 4.43125 12.1507 4.46042 12.2188C4.48958 12.2868 4.54306 12.35 4.62083 12.4083L8.5 15.5C8.34445 15.7528 8.18403 15.9958 8.01875 16.2292C7.85347 16.4625 7.68333 16.6958 7.50833 16.9292ZM9.52083 13.1667L5.29167 9.75418C5.01945 9.54029 4.80556 9.26807 4.65 8.93751C4.49445 8.60696 4.41667 8.26668 4.41667 7.91668C4.41667 7.54723 4.49445 7.20695 4.65 6.89584C4.80556 6.58473 5.01945 6.31251 5.29167 6.07918C5.46667 5.92362 5.6757 5.85557 5.91875 5.87501C6.16181 5.89445 6.36111 6.0014 6.51667 6.19584C6.67222 6.39029 6.74028 6.60418 6.72083 6.83751C6.70139 7.07084 6.59445 7.26529 6.4 7.42084C6.36111 7.45973 6.3125 7.52779 6.25417 7.62501C6.19583 7.72223 6.16667 7.82918 6.16667 7.94584C6.16667 7.98473 6.24445 8.13057 6.4 8.38334L9.66667 11.0375V12C9.66667 12.1945 9.65208 12.3889 9.62292 12.5833C9.59375 12.7778 9.55972 12.9722 9.52083 13.1667ZM9.66667 7.74168L6.98333 5.49584C6.71111 5.28196 6.50695 5.02432 6.37083 4.72293C6.23472 4.42154 6.16667 4.10557 6.16667 3.77501C6.16667 3.15279 6.39028 2.61807 6.8375 2.17084C7.28472 1.72362 7.81945 1.50001 8.44167 1.50001C8.75278 1.50001 9.03472 1.54862 9.2875 1.64584C9.54028 1.74307 9.66667 1.98612 9.66667 2.37501C9.66667 2.7639 9.54028 3.00695 9.2875 3.10418C9.03472 3.2014 8.75278 3.25001 8.44167 3.25001C8.28611 3.25001 8.15972 3.30834 8.0625 3.42501C7.96528 3.54168 7.91667 3.66807 7.91667 3.80418C7.91667 3.88196 7.93125 3.95001 7.96042 4.00834C7.98958 4.06668 8.03333 4.11529 8.09167 4.15418L9.66667 5.46668V7.74168ZM14.4792 13.1667C14.4403 12.9722 14.4063 12.7778 14.3771 12.5833C14.3479 12.3889 14.3333 12.1945 14.3333 12V11.0375L17.6 8.38334C17.6778 8.32501 17.7556 8.17918 17.8333 7.94584C17.8333 7.82918 17.8042 7.72223 17.7458 7.62501C17.6875 7.52779 17.6389 7.45973 17.6 7.42084C17.4056 7.26529 17.2986 7.07084 17.2792 6.83751C17.2597 6.60418 17.3278 6.39029 17.4833 6.19584C17.6389 6.0014 17.8382 5.89445 18.0813 5.87501C18.3243 5.85557 18.5431 5.92362 18.7375 6.07918C19.0097 6.31251 19.2188 6.58959 19.3646 6.91043C19.5104 7.23126 19.5833 7.56668 19.5833 7.91668C19.5833 8.26668 19.5056 8.60209 19.35 8.92293C19.1944 9.24376 18.9806 9.51112 18.7083 9.72501L14.4792 13.1667ZM14.3333 7.74168V5.46668L15.9083 4.15418C15.9667 4.11529 16.0104 4.06668 16.0396 4.00834C16.0688 3.95001 16.0833 3.88196 16.0833 3.80418C16.0833 3.64862 16.0347 3.51737 15.9375 3.41043C15.8403 3.30348 15.7139 3.25001 15.5583 3.25001C15.2472 3.25001 14.9653 3.2014 14.7125 3.10418C14.4597 3.00695 14.3333 2.7639 14.3333 2.37501C14.3333 1.98612 14.4597 1.74307 14.7125 1.64584C14.9653 1.54862 15.2472 1.50001 15.5583 1.50001C16.1806 1.50001 16.7153 1.72362 17.1625 2.17084C17.6097 2.61807 17.8333 3.15279 17.8333 3.77501C17.8333 4.10557 17.7653 4.42154 17.6292 4.72293C17.4931 5.02432 17.2889 5.28196 17.0167 5.49584L14.3333 7.74168ZM16.4917 16.9292C16.3167 16.6958 16.1465 16.4577 15.9813 16.2146C15.816 15.9715 15.6556 15.7236 15.5 15.4708L19.35 12.3792C19.4083 12.3403 19.4764 12.1945 19.5542 11.9417C19.5542 11.9028 19.4958 11.757 19.3792 11.5042C19.1847 11.3486 19.0778 11.1493 19.0583 10.9063C19.0389 10.6632 19.1069 10.4445 19.2625 10.25C19.4181 10.0556 19.6125 9.94862 19.8458 9.92918C20.0792 9.90973 20.2931 9.97779 20.4875 10.1333C20.7597 10.3472 20.9688 10.6146 21.1146 10.9354C21.2604 11.2563 21.3333 11.5917 21.3333 11.9417C21.3333 12.2917 21.2556 12.6271 21.1 12.9479C20.9444 13.2688 20.7306 13.5361 20.4583 13.75L16.4917 16.9292ZM19.5833 19.9042C19.3889 19.7875 19.175 19.632 18.9417 19.4375C18.7083 19.2431 18.4556 19.0195 18.1833 18.7667L21.1292 16.4333C21.1875 16.3945 21.2556 16.2583 21.3333 16.025C21.3333 15.9278 21.3139 15.8403 21.275 15.7625C21.2361 15.6847 21.1972 15.6264 21.1583 15.5875C20.9639 15.432 20.8569 15.2326 20.8375 14.9896C20.8181 14.7465 20.8861 14.5278 21.0417 14.3333C21.1972 14.1389 21.3917 14.0368 21.625 14.0271C21.8583 14.0174 22.0722 14.0903 22.2667 14.2458C22.5389 14.4597 22.7431 14.7222 22.8792 15.0333C23.0153 15.3445 23.0833 15.675 23.0833 16.025C23.0833 16.375 23.0104 16.7007 22.8646 17.0021C22.7188 17.3035 22.5097 17.5611 22.2375 17.775L19.5833 19.9042Z" fill="#0D8E83"/>
</svg>
