<svg width="25" height="22" viewBox="0 0 25 22" fill="none" xmlns="http://www.w3.org/2000/svg">
<path d="M13.4667 14.9083L9.09167 10.5333L18.775 0.85C19.0083 0.616667 19.2854 0.5 19.6062 0.5C19.9271 0.5 20.2042 0.616667 20.4375 0.85L23.15 3.5625C23.3833 3.79583 23.5 4.07292 23.5 4.39375C23.5 4.71458 23.3833 4.99167 23.15 5.225L13.4667 14.9083ZM13.4667 11.5833L20.7 4.37917L19.6208 3.3L12.4167 10.5333L13.4667 11.5833ZM11.8333 21.5L14.1667 19.1667H24.6667V21.5H11.8333ZM4.92083 21.5C4.02639 21.5 3.16597 21.325 2.33958 20.975C1.51319 20.625 0.788889 20.1389 0.166667 19.5167L7.89583 11.8167L10.9292 14.85C11.2014 15.1222 11.4153 15.4333 11.5708 15.7833C11.7264 16.1333 11.8042 16.5028 11.8042 16.8917C11.8042 17.2806 11.7264 17.6549 11.5708 18.0146C11.4153 18.3743 11.2014 18.6903 10.9292 18.9625L10.375 19.5167C9.75278 20.1389 9.02847 20.625 8.20208 20.975C7.37569 21.325 6.51528 21.5 5.62083 21.5H4.92083ZM4.92083 19.1667H5.62083C6.20417 19.1667 6.76806 19.0549 7.3125 18.8312C7.85694 18.6076 8.33333 18.2917 8.74167 17.8833L9.29583 17.3292C9.4125 17.2125 9.47083 17.0764 9.47083 16.9208C9.47083 16.7653 9.4125 16.6292 9.29583 16.5125L7.89583 15.1125L3.92917 19.05C4.08472 19.0889 4.25 19.1181 4.425 19.1375C4.6 19.1569 4.76528 19.1667 4.92083 19.1667Z" fill="#0D8E83"/>
</svg>
